<svg version="1.1" id="Layer_1" xmlns="http://www.w3.org/2000/svg" xmlns:xlink="http://www.w3.org/1999/xlink" x="0px" y="0px"
	 width="100%" viewBox="0 0 448 448" enable-background="new 0 0 448 448" xml:space="preserve">
<path fill="#020101" opacity="1.000000" stroke="none" 
	d="
M255.000000,449.000000 
	C170.023560,449.000000 85.547119,449.000000 1.035342,449.000000 
	C1.035342,299.731873 1.035342,150.463730 1.035342,1.097800 
	C150.226440,1.097800 299.452942,1.097800 448.839722,1.097800 
	C448.839722,150.333191 448.839722,299.666595 448.839722,449.000000 
	C384.463715,449.000000 319.981842,449.000000 255.000000,449.000000 
M344.055084,356.937286 
	C344.055084,356.937286 344.271088,356.695099 344.186005,356.018646 
	C338.557312,352.942322 333.178131,349.214081 327.241608,346.942078 
	C318.264587,343.506317 308.852905,341.224121 299.717712,338.176544 
	C294.861176,336.556427 291.149628,333.500000 291.221466,327.755890 
	C291.280884,323.003357 294.563843,318.813721 300.927368,317.969971 
	C307.873352,317.049042 315.196289,316.987366 322.080841,318.160095 
	C328.613922,319.272949 334.792542,322.466736 341.466980,324.867737 
	C343.020782,320.070679 344.250153,315.219391 346.167725,310.657410 
	C348.022125,306.245758 346.333160,304.092377 342.376343,302.909943 
	C335.716156,300.919617 328.974213,299.189209 322.374603,297.020966 
	C320.997101,296.568420 319.339539,294.819000 319.100677,293.443298 
	C318.304382,288.856964 319.759613,282.100433 317.224823,280.059631 
	C314.263519,277.675415 308.010864,279.489502 303.197174,279.256195 
	C300.080536,279.105103 299.121399,280.390259 299.246918,283.369110 
	C299.434601,287.821991 299.295685,292.288635 299.295685,296.573364 
	C284.109680,301.109985 281.242188,302.568909 275.590698,307.568878 
	C261.896790,319.684204 262.477295,347.076569 281.884735,355.592804 
	C289.001923,358.715973 296.532837,360.900024 303.887024,363.478119 
	C309.820129,365.558105 315.876801,367.330933 321.678131,369.725800 
	C325.671173,371.374115 327.835175,374.817261 327.482635,379.318481 
	C327.134094,383.768921 324.468536,386.874420 320.466095,388.216827 
	C316.743134,389.465454 312.726196,390.281586 308.807587,390.422089 
	C295.233704,390.908936 283.096802,386.279144 271.325012,378.624451 
	C269.309296,384.398834 267.562256,389.888763 265.454376,395.236481 
	C264.406311,397.895508 265.094543,399.369385 267.533539,400.321106 
	C274.328064,402.972412 280.972656,406.190826 287.973846,408.087677 
	C299.038574,411.085541 299.141083,410.707031 299.171814,421.959351 
	C299.189728,428.525238 299.189758,428.525269 305.627411,428.527740 
	C318.502228,428.532715 318.671692,428.530426 318.498871,415.482758 
	C318.445160,411.426819 319.477814,409.812958 323.672729,408.918152 
	C339.944824,405.447296 350.676819,395.061737 352.364624,380.935272 
	C353.451447,371.839203 352.405518,362.987152 344.055084,356.937286 
M135.609344,36.115173 
	C132.790833,39.609951 129.742599,42.945618 127.193176,46.626747 
	C115.448692,63.584690 110.341614,82.575508 110.205864,103.065361 
	C110.193237,104.971367 109.840500,107.013878 109.087318,108.750900 
	C106.556778,114.586899 102.299805,120.088997 101.380859,126.126381 
	C99.184517,140.556122 97.459190,155.214294 97.403595,169.787323 
	C97.081268,254.274231 97.295418,338.763214 97.343819,423.251495 
	C97.344925,425.178986 97.531693,427.106354 97.656631,429.510590 
	C99.974556,429.510590 101.775429,429.510742 103.576309,429.510559 
	C115.574669,429.509277 127.573044,429.498383 139.571396,429.508453 
	C165.901093,429.530518 192.231201,429.499542 218.559982,429.669098 
	C221.995148,429.691223 223.809677,428.931335 224.284424,425.284119 
	C224.969498,420.020996 226.248108,414.834503 226.918945,409.570190 
	C230.442444,381.920074 227.674637,354.370453 225.210693,326.847412 
	C222.642517,298.160065 219.526901,269.521057 217.069611,240.825027 
	C216.623047,235.610214 214.519257,233.242310 210.213593,230.687210 
	C199.548248,224.358063 189.368149,217.204758 179.081482,210.251801 
	C177.757309,209.356766 176.956741,207.687057 175.397522,205.727661 
	C177.682220,205.577820 178.809464,205.475510 179.938934,205.434143 
	C195.245316,204.873428 210.590622,204.809082 225.845581,203.602036 
	C236.727890,202.740952 247.379501,202.355469 258.049377,205.049042 
	C260.731903,205.726227 263.693970,205.715439 266.481415,205.478210 
	C274.601044,204.787201 282.105621,198.706543 282.992615,192.416107 
	C282.850952,192.332458 282.698395,192.162842 282.569458,192.179199 
	C281.757111,192.282288 280.944214,192.398346 280.141998,192.561691 
	C267.190338,195.199020 255.744690,192.042587 245.849304,183.404358 
	C244.710739,182.410446 244.381256,180.489746 243.676636,178.998749 
	C245.306259,179.324173 247.171494,179.247681 248.526306,180.041901 
	C255.955399,184.396973 263.604858,187.951309 272.493652,187.121246 
	C276.968658,186.703369 281.965851,186.310684 282.728027,180.456207 
	C283.703766,172.961456 283.054962,165.740479 277.310944,163.779526 
	C273.401062,162.444717 269.189575,161.811462 265.514343,160.034363 
	C263.004608,158.820847 261.187103,156.175858 259.060089,154.170883 
	C261.842957,153.174408 264.569061,151.905060 267.435242,151.309235 
	C268.665649,151.053436 270.296509,152.009033 271.553528,152.742966 
	C274.271942,154.330154 276.778778,156.294510 279.550873,157.768387 
	C280.824280,158.445435 282.872131,159.021484 283.964935,158.462585 
	C291.053528,154.837311 291.814331,147.283081 285.748322,142.251114 
	C284.481750,141.200455 283.008545,140.380157 281.571350,139.557037 
	C272.054535,134.106323 262.393707,128.892120 253.051437,123.158279 
	C248.806839,120.553154 245.182709,116.937111 241.277130,113.779633 
	C241.544189,113.144119 241.811234,112.508606 242.078278,111.873093 
	C246.905670,112.445633 251.730469,113.041245 256.561646,113.579659 
	C258.568542,113.803314 260.589050,113.904808 262.603363,114.061859 
	C262.378052,111.980881 262.388580,109.836517 261.851746,107.839264 
	C261.432465,106.279297 260.411652,104.852577 259.524261,103.451416 
	C252.926544,93.033798 243.024033,87.362244 231.498947,84.058800 
	C228.629059,83.236198 225.737625,82.488754 222.107834,81.503700 
	C228.206940,76.215332 234.888046,77.110725 241.395676,75.810532 
	C238.588272,73.233475 235.755768,71.030846 232.546524,69.867668 
	C216.281799,63.972591 200.191498,65.557304 184.276093,71.532990 
	C182.416794,72.231087 180.408920,72.533463 178.469910,73.019295 
	C178.192047,72.636391 177.914185,72.253494 177.636322,71.870590 
	C179.845383,67.814285 182.054459,63.757973 184.680374,58.936241 
	C175.096161,59.322380 167.619949,62.904613 161.451111,68.008339 
	C155.433624,72.986832 150.793915,79.630623 145.549332,85.543320 
	C145.141571,85.429451 144.733810,85.315582 144.326035,85.201706 
	C146.065094,77.310318 147.395432,69.300446 149.640579,61.555771 
	C152.874283,50.401009 156.953705,39.492168 160.230682,28.348545 
	C160.863449,26.196774 160.181488,22.793016 158.739304,21.219244 
	C157.866699,20.267023 153.817429,20.989283 152.143448,22.234098 
	C146.566757,26.381079 141.418381,31.104034 135.609344,36.115173 
M230.527130,23.394081 
	C228.592468,20.066896 225.888336,20.141750 223.493271,22.435648 
	C215.144440,30.431801 206.714081,38.375504 198.881409,46.862160 
	C195.650345,50.363026 193.856613,55.190456 190.861420,60.359806 
	C196.383621,59.502880 200.800858,57.662399 204.709076,58.426247 
	C216.715729,60.772907 221.836639,54.364594 225.282120,44.476448 
	C227.604355,37.811821 231.952240,31.754173 230.527130,23.394081 
M293.101501,165.281418 
	C292.683624,164.127518 292.265778,162.973633 291.847900,161.819733 
	C291.408081,161.742172 290.968231,161.664597 290.528412,161.587036 
	C289.676147,163.888763 288.262909,166.149826 288.092468,168.500961 
	C287.771423,172.929184 288.109039,177.411942 288.308136,181.865967 
	C288.353973,182.890152 288.716156,184.512299 289.345917,184.746048 
	C290.165100,185.050125 291.855347,184.564972 292.359467,183.848602 
	C293.549072,182.158112 295.035187,180.116180 295.002625,178.240631 
	C294.931732,174.155258 293.988220,170.085052 293.101501,165.281418 
z"/>
<path fill="#FCFCFC" opacity="1.000000" stroke="none" 
	d="
M135.857590,35.860703 
	C141.418381,31.104034 146.566757,26.381079 152.143448,22.234098 
	C153.817429,20.989283 157.866699,20.267023 158.739304,21.219244 
	C160.181488,22.793016 160.863449,26.196774 160.230682,28.348545 
	C156.953705,39.492168 152.874283,50.401009 149.640579,61.555771 
	C147.395432,69.300446 146.065094,77.310318 144.326035,85.201706 
	C144.733810,85.315582 145.141571,85.429451 145.549332,85.543320 
	C150.793915,79.630623 155.433624,72.986832 161.451111,68.008339 
	C167.619949,62.904613 175.096161,59.322380 184.680374,58.936241 
	C182.054459,63.757973 179.845383,67.814285 177.636322,71.870590 
	C177.914185,72.253494 178.192047,72.636391 178.469910,73.019295 
	C180.408920,72.533463 182.416794,72.231087 184.276093,71.532990 
	C200.191498,65.557304 216.281799,63.972591 232.546524,69.867668 
	C235.755768,71.030846 238.588272,73.233475 241.395676,75.810532 
	C234.888046,77.110725 228.206940,76.215332 222.107834,81.503700 
	C225.737625,82.488754 228.629059,83.236198 231.498947,84.058800 
	C243.024033,87.362244 252.926544,93.033798 259.524261,103.451416 
	C260.411652,104.852577 261.432465,106.279297 261.851746,107.839264 
	C262.388580,109.836517 262.378052,111.980881 262.603363,114.061859 
	C260.589050,113.904808 258.568542,113.803314 256.561646,113.579659 
	C251.730469,113.041245 246.905670,112.445633 242.078278,111.873093 
	C241.811234,112.508606 241.544189,113.144119 241.277130,113.779633 
	C245.182709,116.937111 248.806839,120.553154 253.051437,123.158279 
	C262.393707,128.892120 272.054535,134.106323 281.571350,139.557037 
	C283.008545,140.380157 284.481750,141.200455 285.748322,142.251114 
	C291.814331,147.283081 291.053528,154.837311 283.964935,158.462585 
	C282.872131,159.021484 280.824280,158.445435 279.550873,157.768387 
	C276.778778,156.294510 274.271942,154.330154 271.553528,152.742966 
	C270.296509,152.009033 268.665649,151.053436 267.435242,151.309235 
	C264.569061,151.905060 261.842957,153.174408 259.060089,154.170868 
	C261.187103,156.175858 263.004608,158.820847 265.514343,160.034363 
	C269.189575,161.811462 273.401062,162.444717 277.310944,163.779526 
	C283.054962,165.740479 283.703766,172.961456 282.728027,180.456207 
	C281.965851,186.310684 276.968658,186.703369 272.493652,187.121246 
	C263.604858,187.951309 255.955399,184.396973 248.526306,180.041901 
	C247.171494,179.247681 245.306259,179.324173 243.676636,178.998749 
	C244.381256,180.489746 244.710739,182.410446 245.849304,183.404358 
	C255.744690,192.042587 267.190338,195.199020 280.141998,192.561691 
	C280.944214,192.398346 281.757111,192.282288 282.569458,192.179199 
	C282.698395,192.162842 282.850952,192.332458 282.992615,192.416107 
	C282.105621,198.706543 274.601044,204.787201 266.481415,205.478210 
	C263.693970,205.715439 260.731903,205.726227 258.049377,205.049042 
	C247.379501,202.355469 236.727890,202.740952 225.845581,203.602036 
	C210.590622,204.809082 195.245316,204.873428 179.938934,205.434143 
	C178.809464,205.475510 177.682220,205.577820 175.397522,205.727661 
	C176.956741,207.687057 177.757309,209.356766 179.081482,210.251801 
	C189.368149,217.204758 199.548248,224.358063 210.213593,230.687210 
	C214.519257,233.242310 216.623047,235.610214 217.069611,240.825027 
	C219.526901,269.521057 222.642517,298.160065 225.210693,326.847412 
	C227.674637,354.370453 230.442444,381.920074 226.918945,409.570190 
	C226.248108,414.834503 224.969498,420.020996 224.284424,425.284119 
	C223.809677,428.931335 221.995148,429.691223 218.559982,429.669098 
	C192.231201,429.499542 165.901093,429.530518 139.571396,429.508453 
	C127.573044,429.498383 115.574669,429.509277 103.576309,429.510559 
	C101.775429,429.510742 99.974556,429.510590 97.656631,429.510590 
	C97.531693,427.106354 97.344925,425.178986 97.343819,423.251495 
	C97.295418,338.763214 97.081268,254.274231 97.403595,169.787323 
	C97.459190,155.214294 99.184517,140.556122 101.380859,126.126381 
	C102.299805,120.088997 106.556778,114.586899 109.087318,108.750900 
	C109.840500,107.013878 110.193237,104.971367 110.205864,103.065361 
	C110.341614,82.575508 115.448692,63.584690 127.193176,46.626747 
	C129.742599,42.945618 132.790833,39.609951 135.857590,35.860703 
M174.629349,146.917053 
	C183.843414,153.513611 192.820190,150.391205 196.349503,139.606461 
	C196.798645,138.233994 198.806564,136.819321 200.329895,136.474915 
	C202.871979,135.900162 205.705399,136.568634 208.219879,135.934921 
	C209.602493,135.586487 210.584305,133.647690 211.746811,132.425919 
	C210.562775,131.492706 209.487671,130.327545 208.158524,129.703293 
	C207.182861,129.245071 205.874588,129.445770 204.713974,129.438095 
	C188.102905,129.328201 171.491745,129.224960 154.880478,129.155777 
	C153.985245,129.152039 153.088699,129.463730 152.192764,129.628601 
	C151.986877,130.099258 151.780991,130.569916 151.575104,131.040558 
	C153.863220,132.579529 156.199524,135.491028 158.430847,135.412643 
	C166.748276,135.120529 171.030273,139.702042 174.629349,146.917053 
z"/>
<path fill="#E7C94B" opacity="1.000000" stroke="none" 
	d="
M344.303070,356.728333 
	C352.405518,362.987152 353.451447,371.839203 352.364624,380.935272 
	C350.676819,395.061737 339.944824,405.447296 323.672729,408.918152 
	C319.477814,409.812958 318.445160,411.426819 318.498871,415.482758 
	C318.671692,428.530426 318.502228,428.532715 305.627411,428.527740 
	C299.189758,428.525269 299.189728,428.525238 299.171814,421.959351 
	C299.141083,410.707031 299.038574,411.085541 287.973846,408.087677 
	C280.972656,406.190826 274.328064,402.972412 267.533539,400.321106 
	C265.094543,399.369385 264.406311,397.895508 265.454376,395.236481 
	C267.562256,389.888763 269.309296,384.398834 271.325012,378.624451 
	C283.096802,386.279144 295.233704,390.908936 308.807587,390.422089 
	C312.726196,390.281586 316.743134,389.465454 320.466095,388.216827 
	C324.468536,386.874420 327.134094,383.768921 327.482635,379.318481 
	C327.835175,374.817261 325.671173,371.374115 321.678131,369.725800 
	C315.876801,367.330933 309.820129,365.558105 303.887024,363.478119 
	C296.532837,360.900024 289.001923,358.715973 281.884735,355.592804 
	C262.477295,347.076569 261.896790,319.684204 275.590698,307.568878 
	C281.242188,302.568909 284.109680,301.109985 299.295685,296.573364 
	C299.295685,292.288635 299.434601,287.821991 299.246918,283.369110 
	C299.121399,280.390259 300.080536,279.105103 303.197174,279.256195 
	C308.010864,279.489502 314.263519,277.675415 317.224823,280.059631 
	C319.759613,282.100433 318.304382,288.856964 319.100677,293.443298 
	C319.339539,294.819000 320.997101,296.568420 322.374603,297.020966 
	C328.974213,299.189209 335.716156,300.919617 342.376343,302.909943 
	C346.333160,304.092377 348.022125,306.245758 346.167725,310.657410 
	C344.250153,315.219391 343.020782,320.070679 341.466980,324.867737 
	C334.792542,322.466736 328.613922,319.272949 322.080841,318.160095 
	C315.196289,316.987366 307.873352,317.049042 300.927368,317.969971 
	C294.563843,318.813721 291.280884,323.003357 291.221466,327.755890 
	C291.149628,333.500000 294.861176,336.556427 299.717712,338.176544 
	C308.852905,341.224121 318.264587,343.506317 327.241608,346.942078 
	C333.178131,349.214081 338.557312,352.942322 343.857391,356.424316 
	C341.189026,355.342834 339.027496,353.345551 336.479248,352.455078 
	C324.183014,348.158203 311.848785,343.942017 299.389984,340.150940 
	C293.596924,338.388184 290.872070,334.726532 289.513824,329.188965 
	C288.301941,324.248230 290.639038,320.821045 294.359558,318.827881 
	C298.488922,316.615631 303.345520,314.041992 307.699493,314.340240 
	C315.765137,314.892700 323.659210,317.630127 331.700531,319.018921 
	C334.759552,319.547241 339.801086,320.042084 340.828003,318.491638 
	C342.919952,315.333160 342.980591,310.788330 343.636536,306.775208 
	C343.712524,306.310394 342.348267,305.294586 341.501251,305.045105 
	C335.525970,303.284821 329.586975,301.241272 323.482910,300.134216 
	C319.338623,299.382599 317.037476,297.871735 317.006073,293.578369 
	C316.984161,290.580566 317.375214,287.509094 316.820129,284.616730 
	C316.557281,283.247101 314.631989,281.410004 313.248199,281.203613 
	C310.238159,280.754608 307.064789,281.012360 304.017548,281.422363 
	C303.021210,281.556396 301.570557,282.965942 301.433716,283.946533 
	C301.053589,286.670563 301.021027,289.497559 301.277893,292.243988 
	C301.726318,297.038513 300.022125,299.018402 295.299408,300.050873 
	C283.170319,302.702454 273.632324,308.530151 269.699646,321.318634 
	C266.995422,330.112396 267.802979,338.488678 273.002930,345.810547 
	C278.692291,353.821625 287.628784,357.785065 296.805481,359.740936 
	C308.483490,362.229950 319.473389,365.963623 329.526978,371.715485 
	C329.663727,373.809814 329.515564,375.642914 329.942932,377.330231 
	C331.330475,382.808624 322.273041,392.279999 318.573273,392.657257 
	C306.509125,393.887329 294.790955,392.776917 283.711151,387.400726 
	C281.623718,386.387878 279.320251,385.755310 277.371185,384.539093 
	C274.992462,383.054810 273.156464,381.950104 271.300385,385.272217 
	C267.982574,391.210632 266.620880,398.264496 269.084045,399.301666 
	C274.833099,401.722443 280.640289,404.145905 286.637848,405.785858 
	C290.564301,406.859497 294.864777,406.565063 300.588654,407.005890 
	C300.883240,408.930939 301.842743,412.552368 301.917755,416.192047 
	C302.135040,426.735046 301.990967,426.657349 312.506073,426.055389 
	C315.041809,425.910217 316.134583,425.123627 316.029327,422.526611 
	C315.901276,419.367401 315.458038,416.064697 316.189941,413.078674 
	C316.729919,410.875732 318.524872,408.295837 320.485382,407.273102 
	C324.169098,405.351379 328.362579,404.389252 332.369629,403.108185 
	C342.163696,399.977020 348.084137,393.011505 349.553406,383.225067 
	C350.690521,375.650970 352.558075,367.317963 345.315125,360.950012 
	C344.427032,360.169189 344.614197,358.165375 344.303070,356.728333 
z"/>
<path fill="#F3F3F2" opacity="1.000000" stroke="none" 
	d="
M230.703827,23.779789 
	C231.952240,31.754173 227.604355,37.811821 225.282120,44.476448 
	C221.836639,54.364594 216.715729,60.772907 204.709076,58.426247 
	C200.800858,57.662399 196.383621,59.502880 190.861420,60.359806 
	C193.856613,55.190456 195.650345,50.363026 198.881409,46.862160 
	C206.714081,38.375504 215.144440,30.431801 223.493271,22.435648 
	C225.888336,20.141750 228.592468,20.066896 230.703827,23.779789 
z"/>
<path fill="#E0E0DF" opacity="1.000000" stroke="none" 
	d="
M293.251404,165.645020 
	C293.988220,170.085052 294.931732,174.155258 295.002625,178.240631 
	C295.035187,180.116180 293.549072,182.158112 292.359467,183.848602 
	C291.855347,184.564972 290.165100,185.050125 289.345917,184.746048 
	C288.716156,184.512299 288.353973,182.890152 288.308136,181.865967 
	C288.109039,177.411942 287.771423,172.929184 288.092468,168.500961 
	C288.262909,166.149826 289.676147,163.888763 290.528412,161.587036 
	C290.968231,161.664597 291.408081,161.742172 291.847900,161.819733 
	C292.265778,162.973633 292.683624,164.127518 293.251404,165.645020 
z"/>
<path fill="#131313" opacity="1.000000" stroke="none" 
	d="
M174.384521,146.651794 
	C171.030273,139.702042 166.748276,135.120529 158.430847,135.412643 
	C156.199524,135.491028 153.863220,132.579529 151.575104,131.040558 
	C151.780991,130.569916 151.986877,130.099258 152.192764,129.628601 
	C153.088699,129.463730 153.985245,129.152039 154.880478,129.155777 
	C171.491745,129.224960 188.102905,129.328201 204.713974,129.438095 
	C205.874588,129.445770 207.182861,129.245071 208.158524,129.703293 
	C209.487671,130.327545 210.562775,131.492706 211.746811,132.425919 
	C210.584305,133.647690 209.602493,135.586487 208.219879,135.934921 
	C205.705399,136.568634 202.871979,135.900162 200.329895,136.474915 
	C198.806564,136.819321 196.798645,138.233994 196.349503,139.606461 
	C192.820190,150.391205 183.843414,153.513611 174.384521,146.651794 
z"/>
<path fill="#F4D449" opacity="1.000000" stroke="none" 
	d="
M344.179077,356.832825 
	C344.614197,358.165375 344.427032,360.169189 345.315125,360.950012 
	C352.558075,367.317963 350.690521,375.650970 349.553406,383.225067 
	C348.084137,393.011505 342.163696,399.977020 332.369629,403.108185 
	C328.362579,404.389252 324.169098,405.351379 320.485382,407.273102 
	C318.524872,408.295837 316.729919,410.875732 316.189941,413.078674 
	C315.458038,416.064697 315.901276,419.367401 316.029327,422.526611 
	C316.134583,425.123627 315.041809,425.910217 312.506073,426.055389 
	C301.990967,426.657349 302.135040,426.735046 301.917755,416.192047 
	C301.842743,412.552368 300.883240,408.930939 300.588654,407.005890 
	C294.864777,406.565063 290.564301,406.859497 286.637848,405.785858 
	C280.640289,404.145905 274.833099,401.722443 269.084045,399.301666 
	C266.620880,398.264496 267.982574,391.210632 271.300385,385.272217 
	C273.156464,381.950104 274.992462,383.054810 277.371185,384.539093 
	C279.320251,385.755310 281.623718,386.387878 283.711151,387.400726 
	C294.790955,392.776917 306.509125,393.887329 318.573273,392.657257 
	C322.273041,392.279999 331.330475,382.808624 329.942932,377.330231 
	C329.515564,375.642914 329.663727,373.809814 329.526978,371.715485 
	C319.473389,365.963623 308.483490,362.229950 296.805481,359.740936 
	C287.628784,357.785065 278.692291,353.821625 273.002930,345.810547 
	C267.802979,338.488678 266.995422,330.112396 269.699646,321.318634 
	C273.632324,308.530151 283.170319,302.702454 295.299408,300.050873 
	C300.022125,299.018402 301.726318,297.038513 301.277893,292.243988 
	C301.021027,289.497559 301.053589,286.670563 301.433716,283.946533 
	C301.570557,282.965942 303.021210,281.556396 304.017548,281.422363 
	C307.064789,281.012360 310.238159,280.754608 313.248199,281.203613 
	C314.631989,281.410004 316.557281,283.247101 316.820129,284.616730 
	C317.375214,287.509094 316.984161,290.580566 317.006073,293.578369 
	C317.037476,297.871735 319.338623,299.382599 323.482910,300.134216 
	C329.586975,301.241272 335.525970,303.284821 341.501251,305.045105 
	C342.348267,305.294586 343.712524,306.310394 343.636536,306.775208 
	C342.980591,310.788330 342.919952,315.333160 340.828003,318.491638 
	C339.801086,320.042084 334.759552,319.547241 331.700531,319.018921 
	C323.659210,317.630127 315.765137,314.892700 307.699493,314.340240 
	C303.345520,314.041992 298.488922,316.615631 294.359558,318.827881 
	C290.639038,320.821045 288.301941,324.248230 289.513824,329.188965 
	C290.872070,334.726532 293.596924,338.388184 299.389984,340.150940 
	C311.848785,343.942017 324.183014,348.158203 336.479248,352.455078 
	C339.027496,353.345551 341.189026,355.342834 343.899933,356.762543 
	C344.271088,356.695099 344.055084,356.937286 344.179077,356.832825 
z"/>
</svg>





